<?xml version="1.0" standalone="no"?>
<!DOCTYPE svg PUBLIC "-//W3C//DTD SVG 1.1//EN" "http://www.w3.org/Graphics/SVG/1.1/DTD/svg11.dtd">
<svg xmlns="http://www.w3.org/2000/svg" id="Layer_1" data-name="Layer 1" version="1.1" viewBox="0 0 1408 677" width="1408" height="677">
  <defs>
    <style>
      .cls-1 {
        fill: none;
      }

      .cls-1, .cls-2 {
        stroke-width: 0px;
      }

      .cls-2 {
        fill: #0aabfc;
      }
    </style>
  </defs>
  <g>
    <path class="cls-2" d="M346.6,171c-92,0-166.6,75-166.6,167.5s74.6,167.5,166.6,167.5,166.6-75,166.6-167.5-74.6-167.5-166.6-167.5ZM350,424.5c4.8,3.9,17.3,2,17.7,2-.7.1-2.7,7.9-3.2,8.9-1.6,3.4-3.8,6.6-6.4,9.4-8.5,9.4-21.8,14.2-34.3,12.1-23.2-3.9-27.4-26.7-23.4-46.7,7.5-38.1,15.7-76,23.8-114,0-.3,1.1-6,1.3-6h47.1l-23.5,114.6s-3.9,15.8,1,19.8h0ZM356.4,271.3c-14.1,0-25.6-11.5-25.6-25.7s11.4-25.7,25.6-25.7,25.6,11.5,25.6,25.7-11.4,25.7-25.6,25.7Z"/>
    <path class="cls-2" d="M715.8,197.2v99.8h-112.1v-98.4c0-.8-.6-1.4-1.4-1.4h-22.9c-16.4,0-29.7,13.4-29.7,29.9v237.5c0,.8.6,1.4,1.4,1.4h51.2c.8,0,1.4-.6,1.4-1.4v-118.1h112.1v119.6h54.1V197.2h-54.1Z"/>
    <path class="cls-2" d="M966.7,257.5c-16.4,0-29.7,11.9-29.7,27.7v92.5c0,18.3,2,47.9-36.4,47.9s-36.4-37.1-36.4-51.4,2-114.6,2-114.6h-55c-.1,33.1-1,66.3-.9,99.4.2,36.2-.3,74.4,34.2,95.6,15.9,9.8,34.9,13.8,53.5,14.3,14.3.5,28.7-1,42.2-5.7,13.5-4.7,26-12.8,34.6-24.2,10.7-14.1,15-32.1,16.2-49.8,1.3-19.3,0-38.8,0-58v-73.7h-24.4Z"/>
    <path class="cls-2" d="M1227.6,350.3c-2-26.6-10.2-53.5-26.9-72.1-19.6-21.9-52.1-32.9-80.3-22.8-15,5.4-26.1,15.9-35,28.9v-57.9c0-16.7-13.4-30.2-30-30.2h-23.1v35.4c0,41.1-.3,81.9-.7,123-.3,29.9,2.2,63,23.9,85.4,19.1,19.8,47.3,29.2,74.3,29.9,19.6.5,39.7-3.4,56.2-14,22.4-14.4,35.8-40.2,40-66.6,1.9-12.2,2.6-25.6,1.5-39.1h0ZM1172.5,378.1c0,.5-.2,1-.2,1.5-2.7,17.6-12.8,35.1-29.2,41.7-10.5,4.2-22.8,3.5-32.8-1.6-30.3-15.5-32.2-63-20.7-90.7,11.4-27.4,46.8-40.9,69.1-16.2,14.6,16.3,16.9,44.1,13.9,65.3Z"/>
  </g>
  <rect class="cls-1" width="1408" height="677"/>
</svg>